<?xml version="1.0" standalone="no"?>
<!DOCTYPE svg PUBLIC "-//W3C//DTD SVG 20010904//EN"
 "http://www.w3.org/TR/2001/REC-SVG-20010904/DTD/svg10.dtd">
<svg version="1.0" xmlns="http://www.w3.org/2000/svg"
 width="200.000000pt" height="200.000000pt" viewBox="0 0 200.000000 200.000000"
 preserveAspectRatio="xMidYMid meet">

<g transform="translate(0.000000,200.000000) scale(0.100000,-0.100000)"
fill="#000000" stroke="none">
<path d="M284 1308 c-92 -96 -126 -179 -127 -308 -2 -118 43 -250 85 -250 16
0 15 6 -11 55 -81 152 -62 333 50 481 26 35 47 64 46 64 -2 0 -21 -19 -43 -42z"/>
<path d="M450 1298 c-45 -126 -170 -492 -170 -500 0 -5 23 -8 52 -6 l51 3 20
58 19 57 103 0 103 0 19 -57 20 -58 56 -3 c34 -2 57 1 57 7 0 6 -40 126 -90
268 -49 141 -90 258 -90 260 0 2 -31 3 -69 3 -69 0 -69 0 -81 -32z m111 -175
c17 -54 34 -104 37 -110 3 -10 -16 -13 -73 -13 -57 0 -76 3 -73 13 3 6 20 56
37 110 18 53 34 97 36 97 2 0 18 -44 36 -97z"/>
<path d="M734 1316 c-3 -8 -4 -27 -2 -43 3 -28 4 -28 75 -31 l73 -3 2 -222 3
-222 53 -3 52 -3 0 225 0 226 75 0 75 0 0 45 0 45 -200 0 c-164 0 -202 -3
-206 -14z"/>
<path d="M1210 1061 l0 -271 55 0 55 0 -2 268 -3 267 -52 3 -53 3 0 -270z"/>
<path d="M1557 1288 c-90 -255 -167 -482 -167 -490 0 -5 23 -8 52 -6 l51 3 20
58 19 57 103 0 103 0 19 -57 20 -58 56 -3 c40 -2 57 1 57 9 0 10 -145 433
-176 513 -5 13 -20 16 -74 16 l-68 0 -15 -42z m114 -165 c17 -54 34 -104 37
-110 3 -10 -16 -13 -73 -13 -57 0 -76 3 -73 13 3 6 20 56 37 110 18 53 34 97
36 97 2 0 18 -44 36 -97z"/>
<path d="M355 623 c124 -84 302 -95 439 -27 70 35 84 51 17 20 -126 -58 -259
-57 -388 3 -85 40 -124 42 -68 4z"/>
</g>
</svg>
