<?xml version="1.0" standalone="no"?>
<!DOCTYPE svg PUBLIC "-//W3C//DTD SVG 20010904//EN"
 "http://www.w3.org/TR/2001/REC-SVG-20010904/DTD/svg10.dtd">
<svg version="1.0" xmlns="http://www.w3.org/2000/svg"
 width="204.000000pt" height="192.000000pt" viewBox="0 0 204.000000 192.000000"
 preserveAspectRatio="xMidYMid meet">

<g transform="translate(0.000000,192.000000) scale(0.100000,-0.100000)"
fill="#000000" stroke="none">
<path d="M1457 669 c-15 -9 -17 -27 -17 -125 0 -147 15 -184 100 -244 29 -20
48 -25 127 -28 93 -4 103 -1 80 29 -20 26 -53 39 -102 39 -99 0 -135 57 -135
214 0 91 -2 107 -18 115 -11 6 -24 6 -35 0z"/>
<path d="M125 656 c-61 -27 -125 -122 -125 -186 0 -37 24 -94 53 -127 53 -60
94 -73 235 -73 l124 0 -4 138 c-3 126 -5 140 -27 171 -40 56 -106 91 -170 91
-31 -1 -69 -7 -86 -14z m158 -78 c44 -31 57 -68 57 -158 l0 -80 -91 0 -91 0
-39 39 c-68 68 -51 172 36 212 46 21 85 17 128 -13z"/>
<path d="M585 651 c-44 -27 -86 -72 -101 -108 -21 -48 -20 -413 0 -413 27 0
56 50 56 96 l0 44 88 1 c119 1 161 18 214 89 72 96 26 248 -88 296 -48 20
-133 18 -169 -5z m182 -85 c51 -59 48 -140 -8 -196 -30 -29 -33 -30 -125 -30
l-94 0 0 75 c0 42 6 91 14 109 14 34 57 71 91 78 39 8 99 -10 122 -36z"/>
<path d="M1024 638 c-77 -53 -88 -80 -92 -235 -4 -144 -1 -153 43 -108 23 22
25 32 25 115 0 103 12 136 61 171 25 17 50 24 110 27 79 5 95 14 83 47 -5 12
-25 15 -94 15 -82 0 -91 -2 -136 -32z"/>
<path d="M1310 481 c0 -202 5 -220 50 -206 19 6 20 14 20 174 0 155 -2 170
-21 195 -11 14 -27 26 -35 26 -12 0 -14 -32 -14 -189z"/>
</g>
</svg>
