<?xml version="1.0" standalone="no"?>
<!DOCTYPE svg PUBLIC "-//W3C//DTD SVG 20010904//EN"
 "http://www.w3.org/TR/2001/REC-SVG-20010904/DTD/svg10.dtd">
<svg version="1.0" xmlns="http://www.w3.org/2000/svg"
 width="920.000000pt" height="593.000000pt" viewBox="0 0 920.000000 593.000000"
 preserveAspectRatio="xMidYMid meet">

<g transform="translate(0.000000,593.000000) scale(0.100000,-0.100000)"
fill="#000000" stroke="none">
<path d="M4784 5116 c-27 -10 -101 -87 -336 -354 -33 -36 -38 -49 -38 -90 0
-88 12 -92 253 -92 181 0 196 1 221 21 l26 20 0 229 c0 202 -2 230 -17 248
-22 26 -68 33 -109 18z"/>
<path d="M2655 4333 c-380 -49 -669 -286 -766 -629 -22 -77 -23 -96 -26 -629
-3 -372 -1 -575 7 -627 51 -354 317 -633 683 -715 94 -21 331 -23 407 -4 74
18 144 52 209 101 92 69 117 52 107 -73 -14 -165 -66 -343 -127 -438 -42 -66
-120 -136 -183 -165 -30 -13 -90 -30 -134 -36 -72 -11 -89 -10 -165 9 -84 21
-204 76 -321 147 -33 20 -66 36 -73 36 -27 0 -293 -283 -293 -312 0 -31 27
-63 103 -121 151 -115 271 -178 420 -221 244 -71 482 -49 712 64 229 113 387
306 481 585 20 60 46 155 57 210 20 98 21 133 24 1445 3 1263 3 1346 -14 1357
-12 10 -76 13 -239 13 -248 0 -254 -2 -254 -66 0 -32 -28 -74 -49 -74 -4 0
-26 14 -47 31 -63 50 -153 90 -234 105 -70 12 -215 16 -285 7z m303 -477 c75
-20 155 -71 217 -138 91 -98 89 -80 93 -653 3 -534 -1 -598 -43 -670 -29 -50
-105 -123 -165 -157 -78 -46 -150 -61 -269 -56 -97 3 -113 6 -175 37 -89 44
-187 139 -224 217 l-27 59 0 530 0 530 27 58 c48 103 180 214 287 243 63 17
215 17 279 0z"/>
<path d="M4460 4312 c-14 -2 -31 -9 -37 -14 -10 -8 -13 -277 -13 -1283 0
-1171 1 -1274 17 -1286 12 -11 63 -14 230 -14 214 0 215 0 234 24 18 23 19 57
19 1276 0 1194 -1 1254 -18 1275 -18 22 -24 23 -213 24 -107 0 -205 -1 -219
-2z"/>
<path d="M5542 4298 c-9 -9 -12 -71 -12 -220 0 -195 1 -208 19 -218 13 -6 185
-10 490 -10 418 0 471 -2 486 -16 20 -21 16 -35 -50 -159 -55 -105 -555 -1040
-839 -1570 -92 -170 -169 -321 -173 -333 -3 -15 0 -30 11 -40 15 -16 92 -17
937 -17 900 0 921 0 935 19 11 16 14 62 14 213 0 180 -1 194 -20 213 -19 19
-33 20 -523 20 -527 0 -527 0 -527 43 0 18 117 246 446 865 562 1056 614 1156
614 1180 0 12 -9 26 -19 32 -30 16 -1773 14 -1789 -2z"/>
</g>
</svg>
