<?xml version="1.0" standalone="no"?>
<!DOCTYPE svg PUBLIC "-//W3C//DTD SVG 20010904//EN"
 "http://www.w3.org/TR/2001/REC-SVG-20010904/DTD/svg10.dtd">
<svg version="1.0" xmlns="http://www.w3.org/2000/svg"
 width="2000.000000pt" height="630.000000pt" viewBox="0 0 2000.000000 630.000000"
 preserveAspectRatio="xMidYMid meet">

<g transform="translate(0.000000,630.000000) scale(0.100000,-0.100000)"
fill="#000000" stroke="none">
<path d="M632 6289 c-282 -36 -524 -249 -609 -534 -16 -55 -17 -140 -20 -1117
l-4 -1058 28 5 c15 3 100 17 188 31 1484 238 2282 871 2570 2036 50 201 113
615 98 641 -6 10 -2172 7 -2251 -4z m644 -488 c34 -37 70 -66 99 -77 25 -11
45 -22 45 -26 0 -3 -21 -14 -46 -24 -48 -18 -125 -24 -184 -12 -34 6 -33 6 10
-15 98 -46 241 -32 338 35 l44 31 57 -57 56 -56 0 -93 c0 -69 4 -100 18 -124
15 -29 16 -33 2 -33 -40 0 -124 58 -167 115 -24 31 -28 35 -23 15 14 -47 57
-110 102 -150 43 -38 134 -80 173 -80 46 0 50 -8 50 -99 l0 -87 -56 -49 c-36
-30 -65 -67 -80 -99 l-23 -50 -22 48 c-17 39 -20 63 -17 127 l3 78 -19 -37
c-11 -22 -21 -66 -24 -108 -5 -82 11 -144 59 -219 l31 -48 -56 -56 -56 -56
-93 0 c-69 -1 -100 -5 -125 -19 -19 -9 -36 -15 -39 -13 -13 14 44 111 93 157
60 57 44 60 -38 8 -82 -51 -135 -137 -153 -245 l-7 -43 -87 0 -87 0 -52 59
c-35 40 -66 65 -97 76 -24 10 -42 22 -39 27 16 26 131 49 196 39 58 -9 54 2
-9 23 -98 34 -222 14 -315 -50 l-39 -28 -57 57 -56 56 3 84 c2 60 -2 96 -13
122 -9 21 -14 40 -11 43 2 3 29 -7 59 -22 51 -25 88 -58 128 -116 l18 -25 -11
30 c-19 55 -58 113 -105 154 -47 41 -135 81 -179 81 -33 0 -45 27 -45 97 0 81
6 93 60 135 32 25 57 55 76 94 l28 58 20 -45 c20 -46 27 -141 14 -194 -8 -29
-7 -29 11 5 57 105 42 257 -35 357 l-25 33 58 58 58 58 90 -1 c67 0 99 5 124
18 19 9 36 15 39 13 7 -8 -17 -68 -44 -109 -13 -20 -43 -51 -66 -67 -52 -38
-29 -39 38 -1 90 52 143 129 164 239 l13 62 85 0 85 0 53 -59z"/>
<path d="M1009 5497 c-99 -42 -156 -94 -207 -190 -24 -47 -27 -62 -27 -157 0
-90 3 -112 24 -153 35 -70 102 -139 173 -178 60 -33 67 -34 168 -34 96 0 110
3 161 29 71 35 139 104 176 176 25 49 28 65 28 155 0 93 -2 105 -33 167 -37
75 -104 143 -179 178 -73 36 -209 39 -284 7z"/>
<path d="M3056 6258 c-3 -24 -10 -108 -16 -187 -50 -670 -399 -1373 -902
-1818 -411 -363 -948 -618 -1604 -762 -116 -25 -488 -91 -516 -91 -4 0 -8 -11
-8 -25 0 -32 -5 -32 244 9 720 121 1308 355 1757 698 l85 65 13 -156 c78 -965
389 -1731 915 -2255 173 -173 391 -340 595 -455 65 -36 81 -42 125 -39 l51 3
-75 39 c-412 216 -785 559 -1029 948 -304 485 -491 1132 -537 1858 l-6 105 67
59 c36 32 105 102 152 155 421 470 674 1050 728 1668 20 227 20 223 -9 223
-22 0 -25 -6 -30 -42z"/>
<path d="M3270 6273 c0 -49 -33 -305 -55 -433 -114 -655 -363 -1170 -760
-1577 l-97 -98 6 -210 c7 -276 33 -475 92 -710 36 -142 93 -315 105 -315 5 0
9 5 9 10 0 6 10 14 23 19 30 12 62 -6 114 -63 59 -65 129 -96 218 -96 87 0
134 21 195 85 56 58 94 79 118 66 9 -5 37 -30 62 -56 62 -64 109 -87 179 -86
109 1 186 35 261 116 14 15 42 36 62 46 42 21 44 27 84 216 84 394 94 827 28
1234 l-5 36 -47 -9 c-26 -6 -57 -11 -69 -13 -12 -2 -26 -6 -31 -9 -6 -3 -13 2
-16 11 -6 14 -9 13 -23 -8 -9 -13 -23 -28 -30 -32 -7 -5 -43 -31 -79 -59 l-66
-50 6 33 c6 27 -1 19 -31 -36 -21 -38 -60 -104 -87 -145 -46 -70 -50 -73 -57
-50 -14 48 -9 94 21 191 22 70 43 114 75 158 l45 61 -38 -1 c-20 0 -68 -4
-107 -8 -38 -5 -72 -6 -75 -4 -2 2 16 21 40 43 25 22 42 39 38 40 -4 0 -13 -6
-20 -12 -46 -43 -320 -208 -345 -208 -14 0 12 56 53 115 48 68 144 157 217
199 58 34 144 55 259 63 56 3 95 10 92 15 -4 5 -38 31 -78 56 l-71 47 58 3
c69 4 77 22 10 22 -71 0 -327 43 -393 66 -21 7 17 28 99 54 50 16 90 20 196
20 126 0 138 -2 210 -31 43 -17 99 -44 127 -61 27 -17 51 -28 54 -26 2 3 -2
37 -11 77 -8 40 -15 82 -15 93 0 20 1 21 20 3 34 -31 22 -6 -26 53 -63 78
-144 206 -133 210 5 2 41 -14 80 -35 89 -47 184 -139 226 -218 32 -62 63 -163
63 -209 0 -14 2 -26 5 -26 2 0 39 14 81 30 232 93 458 50 659 -125 l40 -35
-28 0 c-48 0 -229 30 -305 50 -90 25 -97 25 -49 -1 22 -11 37 -22 35 -24 -1
-2 -54 -15 -117 -30 -107 -26 -148 -28 -208 -9 -10 3 -2 -3 17 -14 19 -10 34
-23 33 -30 -2 -6 23 -25 55 -43 69 -40 178 -146 217 -213 62 -107 102 -282 77
-346 -9 -24 -12 -21 -61 55 -28 44 -75 126 -103 183 -52 105 -75 129 -43 47 9
-26 15 -48 13 -50 -2 -2 -45 28 -97 67 -80 60 -96 78 -117 125 -14 31 -27 53
-30 50 -3 -3 1 -18 9 -34 8 -15 18 -38 21 -50 l7 -22 -57 19 c-32 11 -59 18
-62 16 -2 -3 3 -60 12 -128 60 -468 60 -763 1 -1184 -19 -137 -19 -178 1 -220
40 -83 136 -85 266 -7 33 20 66 33 79 31 15 -2 44 -29 77 -70 73 -92 150 -131
255 -132 82 0 134 19 210 77 25 19 60 38 77 42 l30 7 0 1391 c0 1189 -3 1402
-15 1462 -16 76 -66 189 -115 260 -70 101 -197 203 -317 253 -119 50 -138 52
-755 52 -544 0 -578 -1 -578 -17z"/>
<path d="M9560 6034 c-304 -37 -581 -171 -782 -377 -89 -91 -199 -256 -238
-358 -156 -406 -79 -805 231 -1189 148 -183 478 -492 910 -852 339 -283 466
-412 524 -533 90 -189 65 -354 -76 -493 -107 -107 -253 -158 -424 -149 -172 9
-304 74 -456 226 -65 66 -121 135 -175 217 -43 67 -83 128 -89 137 -8 12 -64
-18 -340 -184 -181 -110 -345 -208 -363 -219 l-33 -20 42 -78 c67 -124 201
-320 283 -413 212 -242 504 -403 831 -459 360 -61 733 -16 1010 122 233 116
439 315 552 534 111 212 159 480 133 738 -33 334 -152 563 -455 875 -119 123
-251 239 -811 716 -290 247 -443 399 -485 481 -38 75 -50 167 -29 228 19 57
112 151 187 187 56 28 77 33 166 37 89 3 112 1 180 -21 153 -49 305 -163 449
-336 45 -56 86 -101 89 -101 5 0 567 487 618 535 18 18 11 28 -114 162 -378
402 -725 578 -1160 588 -77 2 -156 1 -175 -1z"/>
<path d="M5910 3645 l0 -2275 1070 0 1070 0 0 410 0 410 -635 0 -635 0 0 1865
0 1865 -435 0 -435 0 0 -2275z"/>
<path d="M11880 3645 l0 -2275 1235 0 1235 0 0 425 0 425 -810 0 -810 0 0 600
0 600 810 0 810 0 0 415 0 415 -810 0 -810 0 0 410 0 410 810 0 810 0 0 425 0
425 -1235 0 -1235 0 0 -2275z"/>
<path d="M14650 5495 l0 -425 400 0 400 0 0 -1850 0 -1850 440 0 440 0 0 1850
0 1850 415 0 415 0 0 425 0 425 -1255 0 -1255 0 0 -425z"/>
<path d="M17690 3645 l0 -2275 430 0 430 0 0 1025 0 1025 700 0 700 0 0 415 0
415 -700 0 -700 0 0 420 0 420 700 0 700 0 0 415 0 415 -1130 0 -1130 0 0
-2275z"/>
<path d="M3140 2745 c-96 -57 -140 -68 -247 -63 -81 4 -94 7 -166 47 -110 61
-117 50 -50 -82 88 -172 142 -257 169 -267 34 -13 105 -13 161 1 33 9 64 29
119 80 41 38 83 69 94 69 11 0 43 -24 72 -55 68 -72 134 -105 207 -105 72 1
120 23 201 93 36 32 73 57 83 57 9 0 46 -27 81 -59 93 -86 115 -96 216 -96
101 1 141 18 210 90 47 50 99 79 124 69 8 -3 27 -24 42 -46 42 -61 119 -124
171 -142 58 -20 157 -21 211 -2 23 8 66 33 95 55 29 23 68 44 85 47 l32 7 0
148 0 149 -45 -34 c-79 -61 -145 -80 -270 -80 -132 0 -190 19 -275 89 -30 25
-63 48 -73 51 -10 3 -38 -7 -67 -25 -67 -41 -110 -58 -178 -71 -81 -14 -148 0
-260 56 l-93 47 -98 -47 c-81 -39 -112 -48 -172 -53 -88 -6 -161 15 -237 70
-26 18 -52 37 -58 40 -5 3 -43 -14 -84 -38z"/>
<path d="M3125 2310 c-65 -36 -106 -51 -147 -56 l-57 -6 43 -57 c24 -31 71
-85 104 -121 l60 -65 23 21 c62 55 77 53 149 -21 62 -64 129 -97 200 -98 72 0
125 24 207 98 33 30 68 55 76 55 8 0 49 -31 90 -68 81 -74 122 -92 207 -92 86
0 125 18 208 92 99 90 115 90 190 -4 74 -92 148 -130 254 -131 84 0 123 14
204 72 30 22 69 43 85 46 l29 7 0 171 0 171 -32 -31 c-75 -72 -234 -115 -353
-95 -80 13 -156 47 -214 96 -69 58 -69 58 -141 15 -87 -53 -155 -72 -244 -67
-62 3 -87 10 -177 54 l-104 50 -83 -42 c-171 -88 -292 -82 -432 21 -26 19 -49
35 -51 35 -2 -1 -44 -23 -94 -50z"/>
<path d="M3680 1832 c-92 -46 -98 -47 -185 -47 -77 1 -98 5 -145 27 l-55 27
50 -46 c61 -54 307 -253 315 -253 3 0 28 20 57 45 28 25 59 45 68 45 9 0 44
-26 78 -59 89 -84 115 -96 217 -96 102 0 128 12 217 96 83 79 104 80 170 2 26
-32 59 -67 73 -80 42 -38 123 -63 205 -63 l73 0 49 54 c81 92 144 212 168 324
l7 34 -52 -36 c-77 -53 -146 -71 -265 -70 -121 0 -183 21 -265 89 -30 25 -63
48 -73 51 -12 4 -40 -7 -75 -29 -80 -49 -145 -69 -227 -69 -78 0 -129 16 -221
67 -34 19 -68 35 -76 34 -7 0 -56 -22 -108 -47z"/>
<path d="M3860 1399 c41 -27 116 -75 167 -105 l91 -54 124 0 c139 0 224 11
316 41 58 19 82 39 47 39 -26 0 -107 45 -160 89 -27 23 -57 41 -66 41 -9 0
-42 -16 -74 -35 -90 -54 -144 -68 -240 -63 -75 4 -92 9 -175 51 -50 26 -94 47
-98 47 -4 0 27 -23 68 -51z"/>
<path d="M1480 677 c-153 -35 -249 -136 -269 -282 -42 -305 270 -492 569 -340
l50 25 0 135 0 135 -70 0 -70 0 0 -99 0 -98 -45 -13 c-67 -19 -150 -7 -199 27
-117 81 -116 279 2 354 80 50 187 48 259 -7 17 -13 36 -24 40 -24 5 0 28 20
52 44 l43 43 -39 32 c-76 63 -215 92 -323 68z"/>
<path d="M2180 676 c-110 -24 -195 -89 -240 -181 -34 -73 -40 -200 -11 -276
30 -79 88 -141 169 -181 62 -31 74 -33 167 -33 87 0 107 4 156 26 76 36 133
89 166 157 25 51 28 68 28 157 0 90 -3 105 -28 152 -52 100 -137 161 -252 182
-70 13 -84 13 -155 -3z m189 -147 c72 -40 106 -112 99 -210 -18 -251 -388
-251 -406 0 -5 64 10 122 40 160 61 79 178 101 267 50z"/>
<path d="M2879 680 c-125 -22 -199 -98 -199 -202 0 -98 61 -150 233 -196 114
-31 147 -51 147 -89 0 -78 -153 -97 -286 -34 l-58 27 -23 -49 c-13 -27 -23
-53 -23 -58 0 -15 76 -48 147 -65 192 -45 368 27 390 159 19 122 -45 184 -243
231 -39 10 -86 26 -103 37 -27 16 -32 25 -29 51 2 20 13 38 31 52 38 28 141
27 216 -3 29 -12 55 -20 57 -19 1 2 12 26 24 53 20 47 20 50 3 63 -47 34 -201
57 -284 42z"/>
<path d="M3730 677 c-102 -24 -160 -71 -180 -149 -29 -106 31 -190 160 -227
41 -12 98 -28 125 -36 60 -17 81 -32 90 -62 9 -31 -31 -70 -81 -79 -52 -10
-155 9 -216 39 l-49 25 -25 -56 c-27 -62 -28 -60 43 -92 138 -62 336 -46 422
33 51 47 67 146 35 214 -23 46 -95 86 -208 114 -50 12 -103 28 -118 36 -49 24
-46 87 4 114 36 19 146 14 207 -9 30 -12 57 -19 61 -17 4 2 15 25 25 51 21 55
15 64 -60 88 -71 22 -170 28 -235 13z"/>
<path d="M9678 671 c-126 -41 -198 -114 -234 -237 -49 -171 50 -357 222 -414
54 -18 82 -22 158 -18 147 7 243 63 307 180 32 58 34 69 34 153 0 113 -21 171
-87 241 -68 72 -146 106 -257 110 -65 3 -100 0 -143 -15z m192 -179 c69 -34
102 -154 62 -232 -37 -74 -138 -104 -209 -60 -56 34 -84 120 -64 196 10 38 59
95 91 107 31 11 86 6 120 -11z"/>
<path d="M16050 676 c-111 -24 -166 -74 -183 -164 -18 -90 43 -174 146 -205
29 -8 85 -25 125 -37 74 -21 112 -47 112 -75 0 -26 -45 -63 -86 -71 -52 -10
-155 9 -215 38 l-48 24 -25 -55 c-24 -54 -24 -55 -5 -69 73 -51 251 -75 353
-48 110 30 169 97 169 192 0 102 -61 154 -228 195 -132 32 -166 57 -150 109
17 55 143 70 248 30 32 -12 60 -20 61 -18 1 1 12 27 24 56 l21 53 -45 19 c-46
20 -148 40 -194 39 -14 0 -50 -6 -80 -13z"/>
<path d="M10 345 l0 -335 308 0 309 0 27 70 28 70 156 0 157 0 26 -67 26 -68
81 -3 80 -3 -147 333 -147 333 -75 0 -74 0 -135 -308 c-115 -262 -135 -302
-138 -272 l-3 35 -164 0 -165 0 -2 273 -3 272 -72 3 -73 3 0 -336z m884 48
c25 -62 46 -115 46 -118 0 -3 -45 -5 -100 -5 -55 0 -100 3 -100 7 0 21 95 242
101 236 4 -5 28 -58 53 -120z"/>
<path d="M4074 666 c-3 -7 -4 -35 -2 -62 l3 -49 108 -3 107 -3 0 -269 0 -270
70 0 70 0 0 270 0 269 108 3 107 3 0 60 0 60 -283 3 c-234 2 -283 0 -288 -12z"/>
<path d="M4739 354 c-79 -180 -146 -331 -147 -336 -2 -5 29 -8 74 -6 l78 3 26
65 26 65 156 3 156 2 29 -70 28 -70 79 0 c58 0 77 3 73 13 -3 6 -69 157 -147
335 l-143 322 -72 0 -72 0 -144 -326z m270 40 l49 -119 -100 -3 c-56 -1 -102
-1 -104 1 -2 2 15 51 39 108 24 57 47 113 50 123 4 10 10 17 12 14 2 -2 27
-58 54 -124z"/>
<path d="M5264 666 c-3 -7 -4 -35 -2 -62 l3 -49 103 -3 102 -3 0 -269 0 -270
75 0 75 0 0 270 0 270 105 0 105 0 0 65 0 65 -280 0 c-229 0 -282 -3 -286 -14z"/>
<path d="M5900 345 l0 -335 250 0 250 0 0 60 0 60 -177 2 -178 3 0 75 0 75
153 3 152 3 0 59 0 60 -155 0 -155 0 0 70 0 70 175 0 175 0 0 65 0 65 -245 0
-245 0 0 -335z"/>
<path d="M6770 345 l0 -335 270 0 270 0 0 85 0 85 -165 0 -165 0 0 45 0 45
140 0 140 0 0 80 0 80 -140 0 -140 0 0 40 0 40 160 0 161 0 -3 83 -3 82 -262
3 -263 2 0 -335z"/>
<path d="M7377 674 c-4 -4 -7 -155 -7 -336 l0 -328 100 0 99 0 3 147 3 148 71
-115 71 -115 49 -3 49 -2 70 120 70 120 3 -150 3 -150 99 0 100 0 0 335 0 335
-89 0 -89 0 -103 -175 c-57 -96 -107 -174 -111 -173 -4 2 -54 80 -110 173
l-103 170 -85 3 c-47 1 -89 0 -93 -4z"/>
<path d="M8250 346 l0 -336 110 0 110 0 0 85 0 85 83 0 c117 0 181 21 238 79
124 124 77 328 -89 392 -49 18 -85 22 -254 27 l-198 5 0 -337z m329 154 c61
-17 79 -74 40 -124 -18 -23 -27 -26 -85 -26 l-64 0 0 80 0 80 38 0 c20 0 52
-4 71 -10z"/>
<path d="M8910 345 l0 -335 260 0 260 0 0 85 0 85 -150 0 -150 0 0 250 0 250
-110 0 -110 0 0 -335z"/>
<path d="M10130 673 c0 -4 54 -100 120 -212 l120 -204 0 -123 0 -124 110 0
110 0 0 121 0 121 120 205 c66 112 120 209 120 214 0 6 -41 9 -102 7 l-102 -3
-65 -112 c-36 -62 -68 -113 -71 -113 -3 0 -34 51 -70 113 l-65 112 -113 3
c-61 1 -112 -1 -112 -5z"/>
<path d="M10847 674 c-4 -4 -7 -155 -7 -336 l0 -328 100 0 100 0 0 147 c0 91
4 143 9 138 5 -6 38 -57 74 -115 l64 -105 49 -3 49 -3 70 121 70 121 3 -150 3
-151 99 0 100 0 0 335 0 335 -89 0 -89 0 -103 -175 c-56 -97 -106 -174 -111
-173 -4 2 -54 80 -110 173 l-103 170 -85 3 c-47 1 -89 0 -93 -4z"/>
<path d="M11720 345 l0 -335 270 0 270 0 0 85 0 85 -165 0 -165 0 0 45 0 45
140 0 140 0 0 80 0 80 -140 0 -140 0 0 40 0 40 160 0 160 0 0 85 0 85 -265 0
-265 0 0 -335z"/>
<path d="M12330 345 l0 -335 105 0 104 0 3 150 3 149 123 -149 123 -150 90 0
89 0 0 335 0 335 -105 0 -104 0 -3 -152 -3 -153 -125 150 -125 150 -88 3 -87
3 0 -336z"/>
<path d="M13010 590 l0 -90 95 0 95 0 0 -245 0 -245 110 0 110 0 0 245 0 245
95 0 95 0 0 90 0 90 -300 0 -300 0 0 -90z"/>
<path d="M13890 615 l0 -65 105 0 105 0 0 -270 0 -270 75 0 75 0 0 270 0 269
103 3 102 3 0 60 0 60 -282 3 -283 2 0 -65z"/>
<path d="M14520 345 l0 -335 75 0 75 0 0 95 0 95 69 0 68 0 64 -95 64 -94 78
-1 c42 0 77 3 77 6 0 3 -32 51 -70 107 -62 90 -68 102 -53 110 33 18 75 62 95
101 31 60 23 178 -15 233 -58 84 -157 112 -399 113 l-128 0 0 -335z m381 167
c23 -25 29 -42 29 -77 0 -35 -6 -52 -29 -77 -29 -33 -31 -33 -130 -36 l-101
-4 0 117 0 117 101 -4 c99 -3 101 -3 130 -36z"/>
<path d="M15180 470 c0 -115 5 -232 11 -260 17 -78 63 -139 133 -175 54 -27
68 -30 155 -30 114 1 171 23 226 88 57 67 65 111 65 364 l0 223 -69 0 -69 0
-4 -222 c-3 -190 -6 -228 -21 -256 -50 -92 -199 -97 -252 -9 -18 29 -20 55
-23 260 l-3 227 -75 0 -74 0 0 -210z"/>
<path d="M16400 615 l0 -65 105 0 105 0 0 -270 0 -270 75 0 75 0 0 270 0 270
105 0 106 0 -3 63 -3 62 -282 3 -283 2 0 -65z"/>
<path d="M17320 345 l0 -335 70 0 70 0 0 120 0 120 155 0 155 0 0 60 0 59
-152 3 -153 3 -3 88 -3 87 176 0 175 0 0 65 0 65 -245 0 -245 0 0 -335z"/>
<path d="M17890 457 c0 -253 8 -298 66 -366 54 -63 112 -85 224 -86 79 0 104
4 145 23 65 30 98 63 127 126 22 48 23 65 26 289 l3 238 -73 -3 -73 -3 -5
-230 c-5 -252 -9 -269 -71 -301 -36 -18 -112 -18 -149 1 -58 30 -64 57 -70
305 l-5 225 -72 3 -73 3 0 -224z"/>
<path d="M18610 345 l0 -335 75 0 75 0 2 200 3 199 160 -197 160 -197 63 -3
62 -3 0 336 0 336 -72 -3 -73 -3 -5 -198 -5 -198 -160 198 -160 198 -63 3 -62
3 0 -336z"/>
<path d="M19350 344 l0 -336 198 4 c173 4 204 7 253 26 72 29 128 77 164 143
25 46 30 68 33 144 5 111 -18 182 -79 245 -81 83 -182 109 -431 110 l-138 0 0
-336z m385 187 c47 -22 89 -64 104 -104 17 -45 13 -137 -8 -184 -12 -26 -35
-52 -62 -70 -39 -26 -51 -28 -156 -31 l-113 -4 0 206 0 206 98 0 c73 0 107 -5
137 -19z"/>
</g>
</svg>
